<mxfile host="app.diagrams.net" modified="2022-12-10T18:51:52.599Z" agent="5.0 (Windows NT 10.0; Win64; x64) AppleWebKit/537.36 (KHTML, like Gecko) Chrome/108.0.0.0 Safari/537.36 Edg/108.0.1462.42" version="20.6.1" etag="bRGIO57_nTRKwMa9GGoE" type="github">
  <diagram id="kkyuXOHU_gKvUsCwP8aJ" name="第 1 页">
    <mxGraphModel dx="522" dy="318" grid="1" gridSize="10" guides="1" tooltips="1" connect="1" arrows="1" fold="1" page="1" pageScale="1" pageWidth="827" pageHeight="1169" math="0" shadow="0">
      <root>
        <mxCell id="0" />
        <mxCell id="1" parent="0" />
        <mxCell id="PDxxMQ6UoKqjI6bHt7Yl-2" value="&lt;font face=&quot;Source Code Pro&quot;&gt;A&lt;/font&gt;" style="rounded=1;whiteSpace=wrap;html=1;sketch=1;verticalAlign=top;" vertex="1" parent="1">
          <mxGeometry x="50" y="252" width="360" height="200" as="geometry" />
        </mxCell>
        <mxCell id="PDxxMQ6UoKqjI6bHt7Yl-7" value="" style="group" vertex="1" connectable="0" parent="1">
          <mxGeometry x="70" y="282" width="310" height="140" as="geometry" />
        </mxCell>
        <mxCell id="PDxxMQ6UoKqjI6bHt7Yl-4" value="C" style="rounded=1;whiteSpace=wrap;html=1;sketch=1;shadow=0;glass=0;fillStyle=auto;fillColor=#ffcccc;strokeColor=#36393d;horizontal=1;verticalAlign=top;" vertex="1" parent="PDxxMQ6UoKqjI6bHt7Yl-7">
          <mxGeometry x="190" y="40" width="120" height="60" as="geometry" />
        </mxCell>
        <mxCell id="PDxxMQ6UoKqjI6bHt7Yl-6" value="" style="group" vertex="1" connectable="0" parent="PDxxMQ6UoKqjI6bHt7Yl-7">
          <mxGeometry width="170" height="140" as="geometry" />
        </mxCell>
        <mxCell id="PDxxMQ6UoKqjI6bHt7Yl-3" value="B" style="rounded=1;whiteSpace=wrap;html=1;sketch=1;shadow=0;glass=0;fillStyle=auto;fillColor=#ffff88;strokeColor=#36393d;horizontal=1;verticalAlign=top;" vertex="1" parent="PDxxMQ6UoKqjI6bHt7Yl-6">
          <mxGeometry width="170" height="140" as="geometry" />
        </mxCell>
        <mxCell id="PDxxMQ6UoKqjI6bHt7Yl-5" value="D" style="rounded=1;whiteSpace=wrap;html=1;shadow=0;glass=0;sketch=1;fillStyle=solid;fillColor=#e1d5e7;strokeColor=#9673a6;" vertex="1" parent="PDxxMQ6UoKqjI6bHt7Yl-6">
          <mxGeometry x="30" y="40" width="120" height="60" as="geometry" />
        </mxCell>
      </root>
    </mxGraphModel>
  </diagram>
</mxfile>
